<mxfile host="Electron" modified="2023-09-15T21:12:50.115Z" agent="Mozilla/5.0 (Windows NT 10.0; Win64; x64) AppleWebKit/537.36 (KHTML, like Gecko) draw.io/21.6.5 Chrome/114.0.5735.243 Electron/25.3.1 Safari/537.36" etag="KmJZKeuIZH90c5gvxEfN" version="21.6.5" type="device">
  <diagram id="szs79xgOVXDPXgL9OrpX" name="Página-1">
    <mxGraphModel dx="1418" dy="820" grid="1" gridSize="10" guides="1" tooltips="1" connect="1" arrows="1" fold="1" page="1" pageScale="1" pageWidth="1150" pageHeight="700" math="0" shadow="0">
      <root>
        <mxCell id="0" />
        <mxCell id="1" parent="0" />
        <mxCell id="DPbp3sRypC6EYG-zwKEf-8" style="edgeStyle=orthogonalEdgeStyle;rounded=0;orthogonalLoop=1;jettySize=auto;html=1;exitX=1;exitY=0.3333333333333333;exitDx=0;exitDy=0;exitPerimeter=0;entryX=0;entryY=0.5;entryDx=0;entryDy=0;" parent="1" source="Wg3yzN3p5O1BGDVJ7ORX-7" target="DPbp3sRypC6EYG-zwKEf-5" edge="1">
          <mxGeometry relative="1" as="geometry">
            <mxPoint x="155" y="235" as="sourcePoint" />
          </mxGeometry>
        </mxCell>
        <mxCell id="Q_k_FdXEpbmu3CS_4IuE-2" style="edgeStyle=orthogonalEdgeStyle;rounded=0;orthogonalLoop=1;jettySize=auto;html=1;exitX=1;exitY=0.3333333333333333;exitDx=0;exitDy=0;exitPerimeter=0;entryX=0;entryY=0.5;entryDx=0;entryDy=0;" parent="1" source="Wg3yzN3p5O1BGDVJ7ORX-7" target="Q_k_FdXEpbmu3CS_4IuE-1" edge="1">
          <mxGeometry relative="1" as="geometry">
            <mxPoint x="155" y="235" as="sourcePoint" />
          </mxGeometry>
        </mxCell>
        <mxCell id="hSa4uURxNk3DmLp7kRdM-2" style="edgeStyle=orthogonalEdgeStyle;rounded=0;orthogonalLoop=1;jettySize=auto;html=1;exitX=1;exitY=0.3333333333333333;exitDx=0;exitDy=0;exitPerimeter=0;entryX=0;entryY=0.5;entryDx=0;entryDy=0;" parent="1" source="Wg3yzN3p5O1BGDVJ7ORX-7" target="hSa4uURxNk3DmLp7kRdM-1" edge="1">
          <mxGeometry relative="1" as="geometry">
            <mxPoint x="155" y="235" as="sourcePoint" />
          </mxGeometry>
        </mxCell>
        <mxCell id="NUaUHLJXbepJ66ujS02r-15" value="CU-4.2: Gestionar comisiones" style="shape=umlFrame;whiteSpace=wrap;html=1;width=270;height=20;fontStyle=1" parent="1" vertex="1">
          <mxGeometry x="310" y="110" width="530" height="540" as="geometry" />
        </mxCell>
        <mxCell id="NUaUHLJXbepJ66ujS02r-18" value="&lt;b&gt;CU-4.2.1: &lt;br&gt;&lt;/b&gt;Buscar comisión" style="ellipse;whiteSpace=wrap;html=1;verticalAlign=top;" parent="1" vertex="1">
          <mxGeometry x="660" y="340" width="140" height="70" as="geometry" />
        </mxCell>
        <mxCell id="DPbp3sRypC6EYG-zwKEf-5" value="&lt;b&gt;CU-4.2.2: &lt;br&gt;&lt;/b&gt;Crear comisión" style="ellipse;whiteSpace=wrap;html=1;verticalAlign=top;" parent="1" vertex="1">
          <mxGeometry x="400" y="150" width="140" height="70" as="geometry" />
        </mxCell>
        <mxCell id="J01Buqdj7F6MblkKf3Q8-6" style="edgeStyle=entityRelationEdgeStyle;rounded=0;orthogonalLoop=1;jettySize=auto;html=1;exitX=1;exitY=0.5;exitDx=0;exitDy=0;entryX=0;entryY=0.5;entryDx=0;entryDy=0;dashed=1;" parent="1" source="Q_k_FdXEpbmu3CS_4IuE-1" target="NUaUHLJXbepJ66ujS02r-18" edge="1">
          <mxGeometry relative="1" as="geometry" />
        </mxCell>
        <mxCell id="J01Buqdj7F6MblkKf3Q8-7" value="include" style="edgeLabel;html=1;align=center;verticalAlign=middle;resizable=0;points=[];" parent="J01Buqdj7F6MblkKf3Q8-6" vertex="1" connectable="0">
          <mxGeometry x="0.2242" relative="1" as="geometry">
            <mxPoint as="offset" />
          </mxGeometry>
        </mxCell>
        <mxCell id="Q_k_FdXEpbmu3CS_4IuE-1" value="&lt;b&gt;CU-4.2.3: &lt;br&gt;&lt;/b&gt;Consultar comisión" style="ellipse;whiteSpace=wrap;html=1;verticalAlign=top;" parent="1" vertex="1">
          <mxGeometry x="400" y="245" width="140" height="70" as="geometry" />
        </mxCell>
        <mxCell id="hSa4uURxNk3DmLp7kRdM-1" value="&lt;b&gt;CU-4.2.4: &lt;br&gt;&lt;/b&gt;Modificar comisión" style="ellipse;whiteSpace=wrap;html=1;verticalAlign=top;" parent="1" vertex="1">
          <mxGeometry x="400" y="340" width="140" height="70" as="geometry" />
        </mxCell>
        <mxCell id="J01Buqdj7F6MblkKf3Q8-3" style="edgeStyle=orthogonalEdgeStyle;rounded=0;orthogonalLoop=1;jettySize=auto;html=1;exitX=1;exitY=0.3333333333333333;exitDx=0;exitDy=0;exitPerimeter=0;entryX=0;entryY=0.5;entryDx=0;entryDy=0;" parent="1" source="Wg3yzN3p5O1BGDVJ7ORX-7" target="J01Buqdj7F6MblkKf3Q8-1" edge="1">
          <mxGeometry relative="1" as="geometry" />
        </mxCell>
        <mxCell id="UQrGGeeDGGj6YTf_ZPvA-2" style="edgeStyle=orthogonalEdgeStyle;rounded=0;orthogonalLoop=1;jettySize=auto;html=1;exitX=1;exitY=0.3333333333333333;exitDx=0;exitDy=0;exitPerimeter=0;entryX=0;entryY=0.5;entryDx=0;entryDy=0;" parent="1" source="Wg3yzN3p5O1BGDVJ7ORX-7" target="UQrGGeeDGGj6YTf_ZPvA-1" edge="1">
          <mxGeometry relative="1" as="geometry" />
        </mxCell>
        <mxCell id="Wg3yzN3p5O1BGDVJ7ORX-7" value="&lt;span style=&quot;background-color: rgb(255 , 255 , 255)&quot;&gt;Responsable Junta&lt;/span&gt;" style="shape=umlActor;verticalLabelPosition=bottom;verticalAlign=top;html=1;outlineConnect=0;" parent="1" vertex="1">
          <mxGeometry x="234" y="315" width="30" height="60" as="geometry" />
        </mxCell>
        <mxCell id="J01Buqdj7F6MblkKf3Q8-1" value="&lt;b&gt;CU-4.2.5: &lt;br&gt;&lt;/b&gt;Eliminar comisión" style="ellipse;whiteSpace=wrap;html=1;verticalAlign=top;" parent="1" vertex="1">
          <mxGeometry x="400" y="440" width="140" height="70" as="geometry" />
        </mxCell>
        <mxCell id="J01Buqdj7F6MblkKf3Q8-8" style="edgeStyle=entityRelationEdgeStyle;rounded=0;orthogonalLoop=1;jettySize=auto;html=1;exitX=1;exitY=0.5;exitDx=0;exitDy=0;dashed=1;entryX=0;entryY=0.5;entryDx=0;entryDy=0;" parent="1" source="hSa4uURxNk3DmLp7kRdM-1" target="NUaUHLJXbepJ66ujS02r-18" edge="1">
          <mxGeometry relative="1" as="geometry">
            <mxPoint x="550" y="290" as="sourcePoint" />
            <mxPoint x="660" y="350" as="targetPoint" />
          </mxGeometry>
        </mxCell>
        <mxCell id="J01Buqdj7F6MblkKf3Q8-9" value="include" style="edgeLabel;html=1;align=center;verticalAlign=middle;resizable=0;points=[];" parent="J01Buqdj7F6MblkKf3Q8-8" vertex="1" connectable="0">
          <mxGeometry x="0.2242" relative="1" as="geometry">
            <mxPoint as="offset" />
          </mxGeometry>
        </mxCell>
        <mxCell id="J01Buqdj7F6MblkKf3Q8-10" style="edgeStyle=entityRelationEdgeStyle;rounded=0;orthogonalLoop=1;jettySize=auto;html=1;exitX=1;exitY=0.5;exitDx=0;exitDy=0;dashed=1;entryX=0;entryY=0.5;entryDx=0;entryDy=0;" parent="1" source="J01Buqdj7F6MblkKf3Q8-1" target="NUaUHLJXbepJ66ujS02r-18" edge="1">
          <mxGeometry relative="1" as="geometry">
            <mxPoint x="550" y="385" as="sourcePoint" />
            <mxPoint x="670" y="360" as="targetPoint" />
          </mxGeometry>
        </mxCell>
        <mxCell id="J01Buqdj7F6MblkKf3Q8-11" value="include" style="edgeLabel;html=1;align=center;verticalAlign=middle;resizable=0;points=[];" parent="J01Buqdj7F6MblkKf3Q8-10" vertex="1" connectable="0">
          <mxGeometry x="0.2242" relative="1" as="geometry">
            <mxPoint as="offset" />
          </mxGeometry>
        </mxCell>
        <mxCell id="UQrGGeeDGGj6YTf_ZPvA-1" value="&lt;b&gt;CU-4.2.6: &lt;br&gt;&lt;/b&gt;Asignar/Desasignar responsable comisión" style="ellipse;whiteSpace=wrap;html=1;verticalAlign=top;" parent="1" vertex="1">
          <mxGeometry x="400" y="540" width="140" height="70" as="geometry" />
        </mxCell>
        <mxCell id="UQrGGeeDGGj6YTf_ZPvA-3" style="edgeStyle=entityRelationEdgeStyle;rounded=0;orthogonalLoop=1;jettySize=auto;html=1;exitX=1;exitY=0.5;exitDx=0;exitDy=0;dashed=1;entryX=0;entryY=0.5;entryDx=0;entryDy=0;" parent="1" source="UQrGGeeDGGj6YTf_ZPvA-1" target="NUaUHLJXbepJ66ujS02r-18" edge="1">
          <mxGeometry relative="1" as="geometry">
            <mxPoint x="550" y="485" as="sourcePoint" />
            <mxPoint x="670" y="385" as="targetPoint" />
          </mxGeometry>
        </mxCell>
        <mxCell id="UQrGGeeDGGj6YTf_ZPvA-4" value="include" style="edgeLabel;html=1;align=center;verticalAlign=middle;resizable=0;points=[];" parent="UQrGGeeDGGj6YTf_ZPvA-3" vertex="1" connectable="0">
          <mxGeometry x="0.2242" relative="1" as="geometry">
            <mxPoint as="offset" />
          </mxGeometry>
        </mxCell>
      </root>
    </mxGraphModel>
  </diagram>
</mxfile>
